<svg version="1.1" id="Layer_1" xmlns="http://www.w3.org/2000/svg" xmlns:xlink="http://www.w3.org/1999/xlink" x="0px" y="0px"
	 width="100%" viewBox="0 0 120 82" enable-background="new 0 0 120 82" xml:space="preserve">
<path fill="#E8E8E8" opacity="1.000000" stroke="none" 
	d="
M81.000000,83.000000 
	C54.000000,83.000000 27.500000,83.000000 1.000000,83.000000 
	C1.000000,55.666668 1.000000,28.333334 1.000000,1.000000 
	C41.000000,1.000000 81.000000,1.000000 121.000000,1.000000 
	C121.000000,28.333334 121.000000,55.666668 121.000000,83.000000 
	C107.833336,83.000000 94.666664,83.000000 81.000000,83.000000 
M79.396919,57.960651 
	C81.388420,51.883625 83.379921,45.806595 85.602531,39.024338 
	C86.289558,40.727146 86.766762,41.746346 87.118271,42.807194 
	C89.730141,50.689877 92.422653,58.548420 94.858490,66.485542 
	C95.799034,69.550293 97.867500,70.692413 100.465103,69.853333 
	C102.091637,69.327927 104.127129,67.507828 104.462944,65.943230 
	C107.845932,50.181362 110.941330,34.357277 114.038506,18.535202 
	C114.416603,16.603670 115.743156,13.890423 112.197906,13.480790 
	C109.244751,13.139571 106.468307,12.782072 105.697418,17.357681 
	C103.681831,29.321184 101.076019,41.185249 98.705521,53.088955 
	C95.565994,45.567501 93.213043,37.992519 90.933456,30.395517 
	C90.118912,27.680964 89.199646,25.633080 85.601952,25.772392 
	C82.324318,25.899313 81.466057,27.626139 80.695412,30.264051 
	C78.446182,37.963066 75.989120,45.601360 73.287102,54.316292 
	C72.689606,51.808384 72.299545,50.384716 72.014435,48.940338 
	C69.922134,38.340702 67.701080,27.763000 65.848091,17.121361 
	C65.127319,12.982029 62.474110,13.137330 59.602947,13.441145 
	C55.743729,13.849514 57.098801,16.526686 57.537594,18.718201 
	C60.670105,34.363346 63.840271,50.001034 66.927193,65.655144 
	C67.423622,68.172600 68.123260,69.980827 71.234222,70.074722 
	C74.176773,70.163544 76.003319,69.216225 76.811378,66.335175 
	C77.528854,63.777107 78.363487,61.251896 79.396919,57.960651 
M24.499905,21.017750 
	C29.252972,21.017750 34.006039,21.017750 38.955742,21.017750 
	C38.955742,29.320215 38.958958,36.960503 38.953400,44.600780 
	C38.952068,46.431511 39.251644,48.342274 38.831367,50.075214 
	C38.099197,53.094166 37.368217,56.271072 35.817307,58.897980 
	C33.296936,63.166935 28.871601,63.590919 24.358473,63.076378 
	C20.061430,62.586475 16.804932,60.542076 15.205877,56.406548 
	C13.127609,51.031666 12.053554,50.511707 5.253173,52.765694 
	C6.260559,55.966461 6.764503,59.478149 8.390702,62.355595 
	C12.351521,69.363983 22.621469,72.360352 32.946190,70.046898 
	C40.471546,68.360703 46.600655,61.869968 46.960442,53.865047 
	C47.512901,41.573410 47.350620,29.250458 47.557659,16.941902 
	C47.607544,13.975994 46.002445,13.323777 43.451424,13.337073 
	C33.298222,13.389995 23.144331,13.396229 12.991263,13.331185 
	C10.247517,13.313607 8.667822,13.912093 8.709282,17.201223 
	C8.749903,20.423822 10.183268,21.175371 13.018832,21.053278 
	C16.507818,20.903048 20.008209,21.017626 24.499905,21.017750 
z"/>
<path fill="#232323" opacity="1.000000" stroke="none" 
	d="
M79.271667,58.336418 
	C78.363487,61.251896 77.528854,63.777107 76.811378,66.335175 
	C76.003319,69.216225 74.176773,70.163544 71.234222,70.074722 
	C68.123260,69.980827 67.423622,68.172600 66.927193,65.655144 
	C63.840271,50.001034 60.670105,34.363346 57.537594,18.718201 
	C57.098801,16.526686 55.743729,13.849514 59.602947,13.441145 
	C62.474110,13.137330 65.127319,12.982029 65.848091,17.121361 
	C67.701080,27.763000 69.922134,38.340702 72.014435,48.940338 
	C72.299545,50.384716 72.689606,51.808384 73.287102,54.316292 
	C75.989120,45.601360 78.446182,37.963066 80.695412,30.264051 
	C81.466057,27.626139 82.324318,25.899313 85.601952,25.772392 
	C89.199646,25.633080 90.118912,27.680964 90.933456,30.395517 
	C93.213043,37.992519 95.565994,45.567501 98.705521,53.088955 
	C101.076019,41.185249 103.681831,29.321184 105.697418,17.357681 
	C106.468307,12.782072 109.244751,13.139571 112.197906,13.480790 
	C115.743156,13.890423 114.416603,16.603670 114.038506,18.535202 
	C110.941330,34.357277 107.845932,50.181362 104.462944,65.943230 
	C104.127129,67.507828 102.091637,69.327927 100.465103,69.853333 
	C97.867500,70.692413 95.799034,69.550293 94.858490,66.485542 
	C92.422653,58.548420 89.730141,50.689877 87.118271,42.807194 
	C86.766762,41.746346 86.289558,40.727146 85.602531,39.024338 
	C83.379921,45.806595 81.388420,51.883625 79.271667,58.336418 
z"/>
<path fill="#262626" opacity="1.000000" stroke="none" 
	d="
M24.001787,21.017750 
	C20.008209,21.017626 16.507818,20.903048 13.018832,21.053278 
	C10.183268,21.175371 8.749903,20.423822 8.709282,17.201223 
	C8.667822,13.912093 10.247517,13.313607 12.991263,13.331185 
	C23.144331,13.396229 33.298222,13.389995 43.451424,13.337073 
	C46.002445,13.323777 47.607544,13.975994 47.557659,16.941902 
	C47.350620,29.250458 47.512901,41.573410 46.960442,53.865047 
	C46.600655,61.869968 40.471546,68.360703 32.946190,70.046898 
	C22.621469,72.360352 12.351521,69.363983 8.390702,62.355595 
	C6.764503,59.478149 6.260559,55.966461 5.253173,52.765694 
	C12.053554,50.511707 13.127609,51.031666 15.205877,56.406548 
	C16.804932,60.542076 20.061430,62.586475 24.358473,63.076378 
	C28.871601,63.590919 33.296936,63.166935 35.817307,58.897980 
	C37.368217,56.271072 38.099197,53.094166 38.831367,50.075214 
	C39.251644,48.342274 38.952068,46.431511 38.953400,44.600780 
	C38.958958,36.960503 38.955742,29.320215 38.955742,21.017750 
	C34.006039,21.017750 29.252972,21.017750 24.001787,21.017750 
z"/>
</svg>